# xmcd CD database file
#
# Track frame offsets:
#	183
#	18375
#	38128
#	58290
#	74888
#	93808
#	107740
#	124813
#	140983
#	156898
#	172690
#
# Disc length: 2499 seconds
#
# Revision: 0
# Processed by: cddbd v1.5.1PL2 Copyright (c) Steve Scherf et al.
# Submitted via: CDex 1.51
#
DISCID=9c09c10b
DTITLE=Marie Rottrová - Dùvìrnosti
DYEAR=1990
DGENRE=Country
TTITLE0=Zarim
TTITLE1=Nadrazni raj
TTITLE2=Ten vitr val
TTITLE3=Chvile v dlanich
TTITLE4=Okno naproti
TTITLE5=Pisen do modrych rán
TTITLE6=Bily pav
TTITLE7=Chci te
TTITLE8=Tvuj adresar
TTITLE9=Dest
TTITLE10=Nejcennejsi z mych ztrat
EXTD=YEAR: 1990
EXTT0=
EXTT1=
EXTT2=
EXTT3=
EXTT4=
EXTT5=
EXTT6=
EXTT7=
EXTT8=
EXTT9=
EXTT10=
PLAYORDER=
